<mxfile host="app.diagrams.net" agent="Mozilla/5.0 (Macintosh; Intel Mac OS X 10_15_7) AppleWebKit/537.36 (KHTML, like Gecko) Chrome/127.0.0.0 Safari/537.36" version="24.7.8">
  <diagram name="Page-1" id="VYGIeJ-EaMMZM1RzmYsg">
    <mxGraphModel dx="1018" dy="797" grid="1" gridSize="10" guides="1" tooltips="1" connect="1" arrows="1" fold="1" page="1" pageScale="1" pageWidth="850" pageHeight="1100" math="0" shadow="0">
      <root>
        <mxCell id="0" />
        <mxCell id="1" parent="0" />
        <mxCell id="rBoZev6xuI7LeDAGhiJY-15" style="edgeStyle=orthogonalEdgeStyle;rounded=0;orthogonalLoop=1;jettySize=auto;html=1;entryX=0;entryY=0.5;entryDx=0;entryDy=0;" parent="1" source="rBoZev6xuI7LeDAGhiJY-2" target="rBoZev6xuI7LeDAGhiJY-10" edge="1">
          <mxGeometry relative="1" as="geometry" />
        </mxCell>
        <mxCell id="rBoZev6xuI7LeDAGhiJY-12" style="edgeStyle=orthogonalEdgeStyle;rounded=0;orthogonalLoop=1;jettySize=auto;html=1;entryX=0;entryY=0.5;entryDx=0;entryDy=0;" parent="1" source="rBoZev6xuI7LeDAGhiJY-2" target="rBoZev6xuI7LeDAGhiJY-7" edge="1">
          <mxGeometry relative="1" as="geometry" />
        </mxCell>
        <mxCell id="rBoZev6xuI7LeDAGhiJY-13" style="edgeStyle=orthogonalEdgeStyle;rounded=0;orthogonalLoop=1;jettySize=auto;html=1;entryX=0;entryY=0.5;entryDx=0;entryDy=0;" parent="1" source="rBoZev6xuI7LeDAGhiJY-2" target="rBoZev6xuI7LeDAGhiJY-8" edge="1">
          <mxGeometry relative="1" as="geometry" />
        </mxCell>
        <mxCell id="rBoZev6xuI7LeDAGhiJY-7" value="NEXT_GEN_API_URL" style="image;html=1;image=img/lib/clip_art/computers/Server_Rack_128x128.png" parent="1" vertex="1">
          <mxGeometry x="490" y="170" width="80" height="80" as="geometry" />
        </mxCell>
        <mxCell id="rBoZev6xuI7LeDAGhiJY-8" value="NEW_VICTOR_API_URL" style="image;html=1;image=img/lib/clip_art/computers/Server_Rack_128x128.png" parent="1" vertex="1">
          <mxGeometry x="490" y="310" width="80" height="80" as="geometry" />
        </mxCell>
        <mxCell id="rBoZev6xuI7LeDAGhiJY-9" value="OLD_VICTOR_API_URL" style="image;html=1;image=img/lib/clip_art/computers/Server_Rack_128x128.png" parent="1" vertex="1">
          <mxGeometry x="490" y="450" width="80" height="80" as="geometry" />
        </mxCell>
        <mxCell id="rBoZev6xuI7LeDAGhiJY-10" value="NEW_PROPOSAL_API_URL" style="image;html=1;image=img/lib/clip_art/computers/Server_Rack_128x128.png" parent="1" vertex="1">
          <mxGeometry x="490" y="590" width="80" height="80" as="geometry" />
        </mxCell>
        <mxCell id="3tgHMd8Dt0rjOWd303GG-1" value="" style="rounded=1;whiteSpace=wrap;html=1;" vertex="1" parent="1">
          <mxGeometry x="40" y="350" width="350" height="180" as="geometry" />
        </mxCell>
        <mxCell id="rBoZev6xuI7LeDAGhiJY-5" style="edgeStyle=orthogonalEdgeStyle;rounded=0;orthogonalLoop=1;jettySize=auto;html=1;entryX=0;entryY=0.5;entryDx=0;entryDy=0;" parent="1" source="rBoZev6xuI7LeDAGhiJY-1" target="rBoZev6xuI7LeDAGhiJY-2" edge="1">
          <mxGeometry relative="1" as="geometry" />
        </mxCell>
        <mxCell id="rBoZev6xuI7LeDAGhiJY-14" style="edgeStyle=orthogonalEdgeStyle;rounded=0;orthogonalLoop=1;jettySize=auto;html=1;entryX=0;entryY=0.5;entryDx=0;entryDy=0;" parent="1" source="rBoZev6xuI7LeDAGhiJY-2" target="rBoZev6xuI7LeDAGhiJY-9" edge="1">
          <mxGeometry relative="1" as="geometry" />
        </mxCell>
        <mxCell id="rBoZev6xuI7LeDAGhiJY-1" value="Frontend" style="outlineConnect=0;dashed=0;verticalLabelPosition=bottom;verticalAlign=top;align=center;html=1;shape=mxgraph.aws3.management_console;fillColor=#D2D3D3;gradientColor=none;" parent="1" vertex="1">
          <mxGeometry x="81" y="398.5" width="63" height="63" as="geometry" />
        </mxCell>
        <mxCell id="rBoZev6xuI7LeDAGhiJY-2" value="API server (proxy)" style="image;html=1;image=img/lib/clip_art/computers/Server_128x128.png" parent="1" vertex="1">
          <mxGeometry x="270" y="390" width="80" height="80" as="geometry" />
        </mxCell>
        <mxCell id="3tgHMd8Dt0rjOWd303GG-2" value="&lt;a style=&quot;box-sizing: inherit; font-family: Slack-Lato, Slack-Fractions, appleLogo, sans-serif; font-size: 15px; font-variant-ligatures: common-ligatures; text-align: left; background-color: rgb(248, 248, 248);&quot; aria-describedby=&quot;sk-tooltip-13041&quot; rel=&quot;noopener noreferrer&quot; href=&quot;http://dev.us.v2.victorinsurance.com/api&quot; data-sk=&quot;tooltip_parent&quot; data-stringify-link=&quot;http://dev.us.v2.victorinsurance.com/api&quot; class=&quot;c-link&quot; target=&quot;_blank&quot;&gt;http://dev.us.v2.victorinsurance.com&lt;/a&gt;" style="text;html=1;align=center;verticalAlign=middle;whiteSpace=wrap;rounded=0;" vertex="1" parent="1">
          <mxGeometry x="144" y="350" width="60" height="30" as="geometry" />
        </mxCell>
        <mxCell id="3tgHMd8Dt0rjOWd303GG-4" value="/ -&amp;gt; frontend:8080" style="text;html=1;align=center;verticalAlign=middle;whiteSpace=wrap;rounded=0;" vertex="1" parent="1">
          <mxGeometry x="52.5" y="490" width="120" height="30" as="geometry" />
        </mxCell>
        <mxCell id="3tgHMd8Dt0rjOWd303GG-5" value="/api -&amp;gt; backend:8080" style="text;html=1;align=center;verticalAlign=middle;whiteSpace=wrap;rounded=0;" vertex="1" parent="1">
          <mxGeometry x="250" y="490" width="120" height="30" as="geometry" />
        </mxCell>
      </root>
    </mxGraphModel>
  </diagram>
</mxfile>
